<?xml version="1.0" encoding="utf-8"?>
<!-- Generator: Adobe Illustrator 22.0.1, SVG Export Plug-In . SVG Version: 6.00 Build 0)  -->
<svg version="1.1" id="Calque_1" xmlns="http://www.w3.org/2000/svg" xmlns:xlink="http://www.w3.org/1999/xlink" x="0px" y="0px"
	 viewBox="0 0 300 300" style="enable-background:new 0 0 300 300;" xml:space="preserve">
<style type="text/css">
	.st0{fill:#1B1B1B;}
	.st1{enable-background:new    ;}
</style>
<g>
	<g>
		<path class="st0" d="M38.5,179h4c0.6,0,1.1,0.5,1.1,1.1v37.1l22.1-19.3c0.2-0.2,0.5-0.3,0.7-0.3h5.7c1,0,1.5,1.3,0.7,2l-23.3,20.3
			c-0.5,0.4-0.5,1.2,0,1.7l25.1,22.5c0.8,0.7,0.3,2-0.8,2h-5.4c-0.3,0-0.5-0.1-0.8-0.3l-24.1-21.5V245c0,0.6-0.5,1.1-1.1,1.1h-4
			c-0.6,0-1.1-0.5-1.1-1.1l-0.1-64.9C37.3,179.5,37.9,179,38.5,179z"/>
		<path class="st0" d="M83.6,197.6h3.8c0.7,0,1.2,0.5,1.2,1.2v21.4c0,5.5,0.3,9.3,0.9,11.4c0.9,3,2.6,5.3,5.1,7s5.5,2.6,9,2.6
			s6.4-0.8,8.8-2.5s4.1-3.9,5-6.6c0.6-1.9,0.9-5.8,0.9-11.9v-21.4c0-0.7,0.5-1.2,1.2-1.2h3.9c0.7,0,1.2,0.5,1.2,1.2v22.6
			c0,6.7-0.8,11.7-2.3,15.1c-1.6,3.4-3.9,6-7,8c-3.1,1.9-7.1,2.9-11.8,2.9c-4.7,0-8.7-0.9-11.8-2.9c-3.2-1.9-5.5-4.6-7.1-8
			s-2.3-8.6-2.4-15.5v-22.1C82.4,198.2,82.9,197.6,83.6,197.6z"/>
		<path class="st0" d="M133.9,197.6h3.7c0.5,0,0.9,0.3,1.1,0.8l14.6,34.4l15.4-35.2h1.1l15.6,35.1l14.8-34.4
			c0.2-0.5,0.6-0.7,1.1-0.7h3.8c0.9,0,1.5,0.9,1.1,1.7L186,246h-1.2l-15.5-34.7L154,246h-1.2l-20-46.7
			C132.4,198.5,133,197.6,133.9,197.6z"/>
		<path class="st0" d="M262.6,198.2l0.1,46.8c0,0.4-0.4,0.8-0.8,0.8h-4.5c-0.4,0-0.8-0.4-0.8-0.8v-7.5c-2.6,3.2-5.5,5.6-8.8,7.2
			c-3.2,1.6-6.8,2.4-10.7,2.4c-6.9,0-12.7-2.5-17.6-7.4c-5.4-5.5-7.8-12.3-7.2-20.5c0.3-4.9,2.2-9.7,5.4-13.5
			c5.2-6.3,11.7-9.5,19.5-9.5c4,0,7.6,0.8,10.8,2.5s6.1,4.2,8.5,7.6v-8.1c0-0.4,0.4-0.8,0.8-0.8h4.5
			C262.2,197.4,262.6,197.8,262.6,198.2z M237.7,202.2c-3.5,0-6.7,0.9-9.6,2.6s-5.3,4.1-7,7.2c-1.7,3.1-2.6,6.3-2.6,9.8
			c0,3.4,0.9,6.7,2.6,9.8c1.8,3.1,4.1,5.5,7.1,7.3c3,1.7,6.1,2.6,9.5,2.6s6.6-0.9,9.7-2.6c3.1-1.7,5.4-4.1,7-7s2.5-6.2,2.5-9.9
			c0-5.6-1.9-10.3-5.6-14C247.6,204.1,243.1,202.2,237.7,202.2z"/>
	</g>
	<g>
		<path class="st0" d="M154.7,105.2c0-11.9,0-23.7,0-35.6c0-1.7,0.2-3.2,2.3-3.3c1.6-0.1,2.5,0.6,2.6,2.2c0.1,0.7,0,1.5,0,2.2
			c0,22.9,0,45.9,0,68.8c0,0.7,0,1.5,0,2.2c-0.1,1.5-1,2.4-2.5,2.4c-1.6,0-2.4-0.9-2.4-2.5c0-2.4,0-4.7,0-7.1
			C154.7,124.7,154.7,115,154.7,105.2z"/>
		<path class="st0" d="M139,45.1c0-11.3,0-22.6,0-33.9c0-0.7-0.2-1.5,0.1-1.9c0.5-0.9,1.4-2.2,2.1-2.1c0.9,0,2,1,2.6,1.9
			c0.4,0.5,0.2,1.6,0.2,2.4c0,22.5,0,45.1,0,67.6c0,0.7,0.3,1.7-0.1,2.1c-0.7,0.9-1.7,2-2.7,2.1c-0.6,0.1-1.7-1.4-2.1-2.3
			c-0.3-0.7-0.1-1.8-0.1-2.7C139,67.2,139,56.1,139,45.1z"/>
		<path class="st0" d="M212.2,63.3c-1-0.5-1.7-0.7-2.3-1.1c-17.7-9.9-35.3-19.8-53-29.7c-1.5-0.9-2.9-1.9-1.9-3.8
			c1.1-2,2.8-1.4,4.4-0.5c17.6,9.9,35.3,19.8,52.9,29.7c1.4,0.8,2.5,1.8,1.9,3.4C213.9,62.1,212.9,62.7,212.2,63.3z"/>
		<path class="st0" d="M157.1,48.9c1.1,0.5,1.8,0.8,2.5,1.2c17.5,9.8,35,19.6,52.5,29.5c0.1,0.1,0.3,0.2,0.4,0.2
			c1.6,0.8,2.5,2.1,1.5,3.8c-1,1.7-2.5,1.5-4,0.6c-9.7-5.5-19.4-10.9-29.1-16.3c-7.8-4.4-15.6-8.8-23.4-13.1c-0.7-0.4-1.7-0.7-2-1.3
			c-0.5-0.8-0.7-2-0.5-2.8C155.3,49.8,156.4,49.4,157.1,48.9z"/>
		<path class="st0" d="M157,6.2c1.1,0.5,1.9,0.8,2.6,1.1c17.6,9.9,35.1,19.7,52.7,29.6c1.7,1,2.9,2.1,1.8,4
			c-1.1,1.8-2.8,1.2-4.3,0.3c-17.7-9.9-35.4-19.9-53.1-29.8c-1.3-0.7-2.4-1.8-1.7-3.3C155.2,7.4,156.3,6.9,157,6.2z"/>
		<path class="st0" d="M88.1,86.4c1,0.5,1.7,0.8,2.3,1.2c17.1,9.9,34.2,19.7,51.3,29.6c1.5,0.9,3,1.8,1.9,3.8s-2.8,1.5-4.4,0.5
			c-17.1-9.9-34.2-19.7-51.3-29.6c-0.5-0.3-1.2-0.5-1.4-0.9c-0.4-0.9-0.9-2-0.6-2.8C86.2,87.3,87.4,86.9,88.1,86.4z"/>
		<path class="st0" d="M88,64.5c1,0.5,1.8,0.8,2.5,1.2c17,9.8,34.1,19.6,51.1,29.4c0.6,0.3,1.4,0.6,1.6,1.1c0.4,0.9,0.8,2.1,0.4,2.8
			c-0.4,0.7-1.6,1.1-2.6,1.3c-0.5,0.1-1.2-0.4-1.7-0.8C122.1,89.7,105,79.9,87.9,70c-0.5-0.3-1.2-0.5-1.4-0.9
			c-0.4-0.9-0.8-2-0.5-2.9C86.1,65.5,87.3,65.1,88,64.5z"/>
		<path class="st0" d="M141.7,143.5c-1.1-0.5-1.9-0.8-2.6-1.2c-17.1-9.8-34.2-19.7-51.3-29.5c-1.6-0.9-2.8-2-1.8-3.9
			s2.6-1.5,4.2-0.6c17.2,10,34.5,19.9,51.7,29.9c1,0.6,1.8,2,1.9,3.2C143.8,141.9,142.4,142.7,141.7,143.5z"/>
		<path class="st0" d="M177.5,105.3c0,8.1,0.1,16.3-0.1,24.4c0,1.1-0.6,2.7-1.5,3.2c-1.5,1-2.8,0.1-3.3-1.6
			c-0.2-0.8-0.2-1.6-0.2-2.4c0-15.8,0-31.6,0-47.3c0-0.5,0-1,0-1.5c0.1-1.6,0.8-2.9,2.6-2.9c1.9,0,2.4,1.3,2.4,3
			C177.5,88.6,177.5,96.9,177.5,105.3z"/>
		<path class="st0" d="M126.2,45.1c0,8,0,15.9,0,23.9c0,1.4-0.1,2.8-1.8,3.3c-1.9,0.6-3.2-0.7-3.3-3c0-5.1,0-10.2,0-15.4
			c0-11,0-22,0.1-32.9c0-1.1,0.5-2.5,1.2-3.2c1.6-1.3,3.7,0,3.7,2.4c0.1,4.4,0,8.8,0,13.2C126.2,37.3,126.2,41.2,126.2,45.1z"/>
		<path class="st0" d="M190.3,105c0-5.1,0-10.3,0-15.4c0-1.8,0.4-3.2,2.5-3.2c2,0,2.5,1.4,2.5,3.2c0,10.3,0,20.5,0,30.8
			c0,1.8-0.7,3.1-2.6,3.1c-1.8,0-2.4-1.4-2.4-3C190.3,115.2,190.3,110.1,190.3,105z"/>
		<path class="st0" d="M108.3,44.6c0,4.6,0,9.3,0,13.9c0,1.7-0.5,3-2.3,3c-2,0.1-2.7-1.2-2.7-3c0-9.3,0-18.5,0-27.8
			c0-1.8,0.5-3.1,2.6-3c1.9,0.1,2.4,1.3,2.4,3C108.3,35.3,108.3,39.9,108.3,44.6z"/>
		<path class="st0" d="M213,105.1c0,1.6,0.1,3.2,0,4.9c-0.1,1.6-1.2,2.5-2.6,2.2c-0.9-0.2-2.1-1.5-2.2-2.3c-0.3-3.2-0.3-6.5,0-9.7
			c0.1-0.8,1.3-2,2.2-2.3c1.4-0.4,2.5,0.7,2.6,2.2C213.1,101.7,213,103.4,213,105.1L213,105.1z"/>
		<path class="st0" d="M85.6,45.5c0-1.2,0-2.4,0-3.6c0-1.5,0.9-2.7,2.4-2.4c0.9,0.2,2.4,1.2,2.5,2c0.3,2.8,0.3,5.7,0,8.5
			c-0.1,0.8-1.7,1.9-2.5,1.9s-1.9-1.3-2.2-2.2C85.3,48.3,85.6,46.8,85.6,45.5z"/>
	</g>
	<g class="st1">
		<path class="st0" d="M11.6,276h2.5c1.4,0,2.4,0.1,2.9,0.2c0.7,0.2,1.3,0.5,1.7,1.1s0.7,1.2,0.7,2c0,0.8-0.2,1.5-0.7,2
			c-0.4,0.5-1,0.9-1.8,1.1c-0.6,0.1-1.6,0.2-3.2,0.2h-0.9v5.8h-1.2V276z M12.9,277.3v4.2l2.1,0c0.9,0,1.5-0.1,1.9-0.2
			c0.4-0.2,0.7-0.4,0.9-0.8c0.2-0.3,0.3-0.7,0.3-1.2c0-0.4-0.1-0.8-0.3-1.1s-0.5-0.6-0.9-0.7s-1-0.2-1.8-0.2H12.9z"/>
		<path class="st0" d="M26,279c1.4,0,2.6,0.5,3.5,1.5c0.8,0.9,1.3,2,1.3,3.3c0,1.3-0.4,2.4-1.3,3.4s-2,1.4-3.5,1.4
			c-1.4,0-2.6-0.5-3.5-1.4c-0.9-1-1.3-2.1-1.3-3.4c0-1.3,0.4-2.4,1.3-3.3C23.4,279.6,24.6,279,26,279z M26,280.2
			c-1,0-1.8,0.4-2.5,1.1c-0.7,0.7-1.1,1.6-1.1,2.6c0,0.7,0.2,1.3,0.5,1.9s0.8,1,1.3,1.3c0.5,0.3,1.2,0.5,1.8,0.5
			c0.7,0,1.3-0.2,1.8-0.5c0.5-0.3,1-0.8,1.3-1.3s0.5-1.2,0.5-1.9c0-1-0.4-1.9-1.1-2.6C27.8,280.6,27,280.2,26,280.2z"/>
		<path class="st0" d="M32.6,279.3h1.2v1.3c0.4-0.5,0.7-0.9,1.1-1.2c0.4-0.3,0.8-0.4,1.3-0.4c0.3,0,0.7,0.1,1,0.3l-0.6,1
			c-0.2-0.1-0.5-0.2-0.6-0.2c-0.4,0-0.8,0.2-1.1,0.5s-0.6,0.8-0.8,1.5c-0.1,0.5-0.2,1.6-0.2,3.2v3.1h-1.2V279.3z"/>
		<path class="st0" d="M39.2,275.9h1.2v3.4h1.9v1h-1.9v8.2h-1.2v-8.2h-1.6v-1h1.6V275.9z"/>
		<path class="st0" d="M51.8,285.4l1,0.5c-0.3,0.6-0.7,1.2-1.1,1.6c-0.4,0.4-0.9,0.7-1.4,0.9c-0.5,0.2-1.1,0.3-1.8,0.3
			c-1.5,0-2.7-0.5-3.5-1.5c-0.8-1-1.3-2.1-1.3-3.3c0-1.2,0.4-2.2,1.1-3.1c0.9-1.2,2.1-1.7,3.6-1.7c1.6,0,2.8,0.6,3.8,1.8
			c0.7,0.8,1,1.9,1,3.1h-8.3c0,1.1,0.4,1.9,1,2.6c0.7,0.7,1.5,1,2.4,1c0.5,0,0.9-0.1,1.4-0.2c0.4-0.2,0.8-0.4,1.1-0.6
			C51.1,286.5,51.5,286,51.8,285.4z M51.8,283c-0.2-0.6-0.4-1.1-0.7-1.5c-0.3-0.4-0.7-0.7-1.2-0.9c-0.5-0.2-1-0.3-1.6-0.3
			c-0.9,0-1.7,0.3-2.3,0.9c-0.5,0.4-0.8,1.1-1.1,1.9H51.8z"/>
		<path class="st0" d="M54.6,279.3h6.8l-5.2,8.2h5v1h-7.1l5.2-8.2h-4.7V279.3z"/>
		<path class="st0" d="M67.3,275.7h1.2v12.7h-1.2V275.7z"/>
		<path class="st0" d="M78.7,285.4l1,0.5c-0.3,0.6-0.7,1.2-1.1,1.6c-0.4,0.4-0.9,0.7-1.4,0.9c-0.5,0.2-1.1,0.3-1.8,0.3
			c-1.5,0-2.7-0.5-3.5-1.5c-0.8-1-1.3-2.1-1.3-3.3c0-1.2,0.4-2.2,1.1-3.1c0.9-1.2,2.1-1.7,3.6-1.7c1.6,0,2.8,0.6,3.8,1.8
			c0.7,0.8,1,1.9,1,3.1h-8.3c0,1.1,0.4,1.9,1,2.6c0.7,0.7,1.5,1,2.4,1c0.5,0,0.9-0.1,1.4-0.2c0.4-0.2,0.8-0.4,1.1-0.6
			C78,286.5,78.3,286,78.7,285.4z M78.7,283c-0.2-0.6-0.4-1.1-0.7-1.5c-0.3-0.4-0.7-0.7-1.2-0.9c-0.5-0.2-1-0.3-1.6-0.3
			c-0.9,0-1.7,0.3-2.3,0.9c-0.5,0.4-0.8,1.1-1.1,1.9H78.7z"/>
		<path class="st0" d="M86.8,280.3l-0.8,0.8c-0.6-0.6-1.3-0.9-1.9-0.9c-0.4,0-0.7,0.1-1,0.4c-0.3,0.3-0.4,0.5-0.4,0.9
			c0,0.3,0.1,0.6,0.3,0.9c0.2,0.3,0.7,0.6,1.4,1c0.9,0.5,1.5,0.9,1.8,1.3c0.3,0.4,0.5,0.9,0.5,1.4c0,0.8-0.3,1.4-0.8,1.9
			c-0.5,0.5-1.2,0.8-2,0.8c-0.5,0-1-0.1-1.5-0.3c-0.5-0.2-0.9-0.5-1.2-1l0.7-0.8c0.6,0.7,1.2,1,1.9,1c0.5,0,0.9-0.2,1.2-0.5
			c0.3-0.3,0.5-0.7,0.5-1.1c0-0.3-0.1-0.6-0.3-0.9c-0.2-0.3-0.7-0.6-1.5-1c-0.8-0.4-1.4-0.9-1.7-1.3c-0.3-0.4-0.4-0.9-0.4-1.4
			c0-0.7,0.2-1.3,0.7-1.7c0.5-0.5,1.1-0.7,1.8-0.7C85.1,279,86,279.5,86.8,280.3z"/>
		<path class="st0" d="M102.6,281.2l-0.9,0.6c-0.8-1.1-1.9-1.6-3.3-1.6c-1.1,0-2.1,0.4-2.8,1.1c-0.7,0.7-1.1,1.6-1.1,2.6
			c0,0.7,0.2,1.3,0.5,1.9c0.3,0.6,0.8,1,1.4,1.4c0.6,0.3,1.3,0.5,2,0.5c1.4,0,2.5-0.5,3.3-1.6l0.9,0.6c-0.4,0.7-1,1.2-1.8,1.5
			c-0.7,0.4-1.6,0.5-2.5,0.5c-1.5,0-2.7-0.5-3.6-1.4c-1-0.9-1.4-2-1.4-3.4c0-0.9,0.2-1.7,0.7-2.5s1.1-1.4,1.8-1.8
			c0.8-0.4,1.7-0.6,2.6-0.6c0.6,0,1.2,0.1,1.8,0.3c0.6,0.2,1,0.4,1.4,0.7S102.4,280.7,102.6,281.2z"/>
		<path class="st0" d="M109.3,279c1.4,0,2.6,0.5,3.5,1.5c0.8,0.9,1.3,2,1.3,3.3c0,1.3-0.4,2.4-1.3,3.4s-2,1.4-3.5,1.4
			c-1.4,0-2.6-0.5-3.5-1.4c-0.9-1-1.3-2.1-1.3-3.4c0-1.3,0.4-2.4,1.3-3.3C106.7,279.6,107.8,279,109.3,279z M109.3,280.2
			c-1,0-1.8,0.4-2.5,1.1c-0.7,0.7-1.1,1.6-1.1,2.6c0,0.7,0.2,1.3,0.5,1.9s0.8,1,1.3,1.3c0.5,0.3,1.2,0.5,1.8,0.5
			c0.7,0,1.3-0.2,1.8-0.5c0.5-0.3,1-0.8,1.3-1.3s0.5-1.2,0.5-1.9c0-1-0.4-1.9-1.1-2.6C111.1,280.6,110.2,280.2,109.3,280.2z"/>
		<path class="st0" d="M116.1,279.3h1.2v4.3c0,1,0.1,1.8,0.2,2.2c0.2,0.6,0.5,1,1,1.3s1,0.5,1.7,0.5s1.2-0.2,1.7-0.5s0.8-0.7,1-1.3
			c0.1-0.4,0.2-1.1,0.2-2.3v-4.3h1.2v4.5c0,1.3-0.1,2.2-0.4,2.9s-0.7,1.1-1.3,1.5s-1.3,0.5-2.2,0.5c-0.9,0-1.6-0.2-2.2-0.5
			s-1-0.9-1.3-1.5c-0.3-0.7-0.4-1.6-0.4-2.9V279.3z"/>
		<path class="st0" d="M126.6,275.7h1.2v12.7h-1.2V275.7z"/>
		<path class="st0" d="M138,285.4l1,0.5c-0.3,0.6-0.7,1.2-1.1,1.6c-0.4,0.4-0.9,0.7-1.4,0.9c-0.5,0.2-1.1,0.3-1.8,0.3
			c-1.5,0-2.7-0.5-3.5-1.5c-0.8-1-1.3-2.1-1.3-3.3c0-1.2,0.4-2.2,1.1-3.1c0.9-1.2,2.1-1.7,3.6-1.7c1.6,0,2.8,0.6,3.8,1.8
			c0.7,0.8,1,1.9,1,3.1H131c0,1.1,0.4,1.9,1,2.6c0.7,0.7,1.5,1,2.4,1c0.5,0,0.9-0.1,1.4-0.2c0.4-0.2,0.8-0.4,1.1-0.6
			C137.3,286.5,137.6,286,138,285.4z M138,283c-0.2-0.6-0.4-1.1-0.7-1.5c-0.3-0.4-0.7-0.7-1.2-0.9c-0.5-0.2-1-0.3-1.6-0.3
			c-0.9,0-1.7,0.3-2.3,0.9c-0.5,0.4-0.8,1.1-1.1,1.9H138z"/>
		<path class="st0" d="M141.3,279.3h1.2v4.3c0,1,0.1,1.8,0.2,2.2c0.2,0.6,0.5,1,1,1.3s1,0.5,1.7,0.5s1.2-0.2,1.7-0.5s0.8-0.7,1-1.3
			c0.1-0.4,0.2-1.1,0.2-2.3v-4.3h1.2v4.5c0,1.3-0.1,2.2-0.4,2.9s-0.7,1.1-1.3,1.5s-1.3,0.5-2.2,0.5c-0.9,0-1.6-0.2-2.2-0.5
			s-1-0.9-1.3-1.5c-0.3-0.7-0.4-1.6-0.4-2.9V279.3z"/>
		<path class="st0" d="M151.6,279.3h1.2v1.3c0.4-0.5,0.7-0.9,1.1-1.2c0.4-0.3,0.8-0.4,1.3-0.4c0.3,0,0.7,0.1,1,0.3l-0.6,1
			c-0.2-0.1-0.5-0.2-0.6-0.2c-0.4,0-0.8,0.2-1.1,0.5s-0.6,0.8-0.8,1.5c-0.1,0.5-0.2,1.6-0.2,3.2v3.1h-1.2V279.3z"/>
		<path class="st0" d="M161.9,280.3l-0.8,0.8c-0.6-0.6-1.3-0.9-1.9-0.9c-0.4,0-0.7,0.1-1,0.4c-0.3,0.3-0.4,0.5-0.4,0.9
			c0,0.3,0.1,0.6,0.3,0.9c0.2,0.3,0.7,0.6,1.4,1c0.9,0.5,1.5,0.9,1.8,1.3c0.3,0.4,0.5,0.9,0.5,1.4c0,0.8-0.3,1.4-0.8,1.9
			c-0.5,0.5-1.2,0.8-2,0.8c-0.5,0-1-0.1-1.5-0.3c-0.5-0.2-0.9-0.5-1.2-1l0.7-0.8c0.6,0.7,1.2,1,1.9,1c0.5,0,0.9-0.2,1.2-0.5
			c0.3-0.3,0.5-0.7,0.5-1.1c0-0.3-0.1-0.6-0.3-0.9c-0.2-0.3-0.7-0.6-1.5-1c-0.8-0.4-1.4-0.9-1.7-1.3c-0.3-0.4-0.4-0.9-0.4-1.4
			c0-0.7,0.2-1.3,0.7-1.7c0.5-0.5,1.1-0.7,1.8-0.7C160.1,279,161,279.5,161.9,280.3z"/>
		<path class="st0" d="M177.9,275.7v12.7h-1.2v-1.6c-0.5,0.6-1.1,1.1-1.7,1.4s-1.3,0.5-2,0.5c-1.3,0-2.4-0.5-3.3-1.4
			c-0.9-0.9-1.4-2.1-1.4-3.4c0-1.3,0.5-2.5,1.4-3.4c0.9-0.9,2-1.4,3.4-1.4c0.8,0,1.4,0.2,2,0.5s1.1,0.8,1.6,1.4v-5.2H177.9z
			 M173.2,280.2c-0.7,0-1.3,0.2-1.8,0.5c-0.6,0.3-1,0.8-1.3,1.4c-0.3,0.6-0.5,1.2-0.5,1.9c0,0.6,0.2,1.3,0.5,1.9s0.8,1.1,1.3,1.4
			c0.6,0.3,1.2,0.5,1.8,0.5c0.6,0,1.3-0.2,1.8-0.5c0.6-0.3,1-0.8,1.3-1.3c0.3-0.6,0.5-1.2,0.5-1.9c0-1.1-0.4-2-1.1-2.7
			C175.1,280.5,174.2,280.2,173.2,280.2z"/>
		<path class="st0" d="M188.4,285.4l1,0.5c-0.3,0.6-0.7,1.2-1.1,1.6c-0.4,0.4-0.9,0.7-1.4,0.9c-0.5,0.2-1.1,0.3-1.8,0.3
			c-1.5,0-2.7-0.5-3.5-1.5c-0.8-1-1.3-2.1-1.3-3.3c0-1.2,0.4-2.2,1.1-3.1c0.9-1.2,2.1-1.7,3.6-1.7c1.6,0,2.8,0.6,3.8,1.8
			c0.7,0.8,1,1.9,1,3.1h-8.3c0,1.1,0.4,1.9,1,2.6c0.7,0.7,1.5,1,2.4,1c0.5,0,0.9-0.1,1.4-0.2c0.4-0.2,0.8-0.4,1.1-0.6
			C187.7,286.5,188,286,188.4,285.4z M188.4,283c-0.2-0.6-0.4-1.1-0.7-1.5c-0.3-0.4-0.7-0.7-1.2-0.9c-0.5-0.2-1-0.3-1.6-0.3
			c-0.9,0-1.7,0.3-2.3,0.9c-0.5,0.4-0.8,1.1-1.1,1.9H188.4z"/>
		<path class="st0" d="M195.8,279.3h1.3l3.1,6.7l3-6.7h1.3l-4.2,9.2H200L195.8,279.3z"/>
		<path class="st0" d="M210.6,279c1.4,0,2.6,0.5,3.5,1.5c0.8,0.9,1.3,2,1.3,3.3c0,1.3-0.4,2.4-1.3,3.4s-2,1.4-3.5,1.4
			c-1.4,0-2.6-0.5-3.5-1.4c-0.9-1-1.3-2.1-1.3-3.4c0-1.3,0.4-2.4,1.3-3.3C208,279.6,209.2,279,210.6,279z M210.6,280.2
			c-1,0-1.8,0.4-2.5,1.1c-0.7,0.7-1.1,1.6-1.1,2.6c0,0.7,0.2,1.3,0.5,1.9s0.8,1,1.3,1.3c0.5,0.3,1.2,0.5,1.8,0.5
			c0.7,0,1.3-0.2,1.8-0.5c0.5-0.3,1-0.8,1.3-1.3s0.5-1.2,0.5-1.9c0-1-0.4-1.9-1.1-2.6C212.4,280.6,211.6,280.2,210.6,280.2z"/>
		<path class="st0" d="M218.6,275.9h1.2v3.4h1.9v1h-1.9v8.2h-1.2v-8.2H217v-1h1.6V275.9z"/>
		<path class="st0" d="M223,279.3h1.2v1.3c0.4-0.5,0.7-0.9,1.1-1.2c0.4-0.3,0.8-0.4,1.3-0.4c0.3,0,0.7,0.1,1,0.3l-0.6,1
			c-0.2-0.1-0.5-0.2-0.6-0.2c-0.4,0-0.8,0.2-1.1,0.5s-0.6,0.8-0.8,1.5c-0.1,0.5-0.2,1.6-0.2,3.2v3.1H223V279.3z"/>
		<path class="st0" d="M236.3,285.4l1,0.5c-0.3,0.6-0.7,1.2-1.1,1.6c-0.4,0.4-0.9,0.7-1.4,0.9c-0.5,0.2-1.1,0.3-1.8,0.3
			c-1.5,0-2.7-0.5-3.5-1.5c-0.8-1-1.3-2.1-1.3-3.3c0-1.2,0.4-2.2,1.1-3.1c0.9-1.2,2.1-1.7,3.6-1.7c1.6,0,2.8,0.6,3.8,1.8
			c0.7,0.8,1,1.9,1,3.1h-8.3c0,1.1,0.4,1.9,1,2.6c0.7,0.7,1.5,1,2.4,1c0.5,0,0.9-0.1,1.4-0.2c0.4-0.2,0.8-0.4,1.1-0.6
			C235.6,286.5,236,286,236.3,285.4z M236.3,283c-0.2-0.6-0.4-1.1-0.7-1.5c-0.3-0.4-0.7-0.7-1.2-0.9c-0.5-0.2-1-0.3-1.6-0.3
			c-0.9,0-1.7,0.3-2.3,0.9c-0.5,0.4-0.8,1.1-1.1,1.9H236.3z"/>
		<path class="st0" d="M253.8,279.3v9.2h-1.2v-1.6c-0.5,0.6-1.1,1.1-1.7,1.4s-1.3,0.5-2,0.5c-1.3,0-2.4-0.5-3.3-1.4
			c-0.9-0.9-1.4-2.1-1.4-3.4c0-1.3,0.5-2.5,1.4-3.4c0.9-0.9,2-1.4,3.4-1.4c0.8,0,1.4,0.2,2.1,0.5c0.6,0.3,1.1,0.8,1.6,1.4v-1.7
			H253.8z M249.1,280.2c-0.7,0-1.3,0.2-1.8,0.5c-0.6,0.3-1,0.8-1.3,1.4c-0.3,0.6-0.5,1.2-0.5,1.9c0,0.6,0.2,1.3,0.5,1.9
			s0.8,1.1,1.3,1.4c0.6,0.3,1.2,0.5,1.8,0.5c0.6,0,1.3-0.2,1.8-0.5s1-0.8,1.3-1.3c0.3-0.6,0.5-1.2,0.5-1.9c0-1.1-0.4-2-1.1-2.7
			S250.1,280.2,249.1,280.2z"/>
		<path class="st0" d="M261.1,280.3l-0.8,0.8c-0.6-0.6-1.3-0.9-1.9-0.9c-0.4,0-0.7,0.1-1,0.4c-0.3,0.3-0.4,0.5-0.4,0.9
			c0,0.3,0.1,0.6,0.3,0.9c0.2,0.3,0.7,0.6,1.4,1c0.9,0.5,1.5,0.9,1.8,1.3c0.3,0.4,0.5,0.9,0.5,1.4c0,0.8-0.3,1.4-0.8,1.9
			c-0.5,0.5-1.2,0.8-2,0.8c-0.5,0-1-0.1-1.5-0.3c-0.5-0.2-0.9-0.5-1.2-1l0.7-0.8c0.6,0.7,1.2,1,1.9,1c0.5,0,0.9-0.2,1.2-0.5
			c0.3-0.3,0.5-0.7,0.5-1.1c0-0.3-0.1-0.6-0.3-0.9c-0.2-0.3-0.7-0.6-1.5-1c-0.8-0.4-1.4-0.9-1.7-1.3c-0.3-0.4-0.4-0.9-0.4-1.4
			c0-0.7,0.2-1.3,0.7-1.7c0.5-0.5,1.1-0.7,1.8-0.7C259.4,279,260.2,279.5,261.1,280.3z"/>
		<path class="st0" d="M267.8,280.3l-0.8,0.8c-0.6-0.6-1.3-0.9-1.9-0.9c-0.4,0-0.7,0.1-1,0.4c-0.3,0.3-0.4,0.5-0.4,0.9
			c0,0.3,0.1,0.6,0.3,0.9c0.2,0.3,0.7,0.6,1.4,1c0.9,0.5,1.5,0.9,1.8,1.3c0.3,0.4,0.5,0.9,0.5,1.4c0,0.8-0.3,1.4-0.8,1.9
			c-0.5,0.5-1.2,0.8-2,0.8c-0.5,0-1-0.1-1.5-0.3c-0.5-0.2-0.9-0.5-1.2-1l0.7-0.8c0.6,0.7,1.2,1,1.9,1c0.5,0,0.9-0.2,1.2-0.5
			c0.3-0.3,0.5-0.7,0.5-1.1c0-0.3-0.1-0.6-0.3-0.9c-0.2-0.3-0.7-0.6-1.5-1c-0.8-0.4-1.4-0.9-1.7-1.3c-0.3-0.4-0.4-0.9-0.4-1.4
			c0-0.7,0.2-1.3,0.7-1.7c0.5-0.5,1.1-0.7,1.8-0.7C266.1,279,267,279.5,267.8,280.3z"/>
		<path class="st0" d="M274.3,279c1.4,0,2.6,0.5,3.5,1.5c0.8,0.9,1.3,2,1.3,3.3c0,1.3-0.4,2.4-1.3,3.4s-2,1.4-3.5,1.4
			c-1.4,0-2.6-0.5-3.5-1.4c-0.9-1-1.3-2.1-1.3-3.4c0-1.3,0.4-2.4,1.3-3.3C271.7,279.6,272.8,279,274.3,279z M274.3,280.2
			c-1,0-1.8,0.4-2.5,1.1c-0.7,0.7-1.1,1.6-1.1,2.6c0,0.7,0.2,1.3,0.5,1.9s0.8,1,1.3,1.3c0.5,0.3,1.2,0.5,1.8,0.5
			c0.7,0,1.3-0.2,1.8-0.5c0.5-0.3,1-0.8,1.3-1.3s0.5-1.2,0.5-1.9c0-1-0.4-1.9-1.1-2.6C276.1,280.6,275.2,280.2,274.3,280.2z"/>
		<path class="st0" d="M287.3,286.6c0.3,0,0.5,0.1,0.7,0.3c0.2,0.2,0.3,0.5,0.3,0.7c0,0.3-0.1,0.5-0.3,0.7c-0.2,0.2-0.4,0.3-0.7,0.3
			c-0.3,0-0.5-0.1-0.7-0.3c-0.2-0.2-0.3-0.5-0.3-0.7c0-0.3,0.1-0.5,0.3-0.7S287,286.6,287.3,286.6z M287.9,275.7v9.6h-1.2v-9.6
			H287.9z"/>
	</g>
</g>
</svg>
